<?xml version="1.0" encoding="UTF-8" standalone="no"?>
<!DOCTYPE svg PUBLIC "-//W3C//DTD SVG 1.1//EN" "http://www.w3.org/Graphics/SVG/1.1/DTD/svg11.dtd">
<svg width="100%" height="100%" viewBox="0 0 500 500" version="1.1" xmlns="http://www.w3.org/2000/svg" xmlns:xlink="http://www.w3.org/1999/xlink" xml:space="preserve" xmlns:serif="http://www.serif.com/" style="fill-rule:evenodd;clip-rule:evenodd;stroke-linejoin:round;stroke-miterlimit:1.41421;">
    <g id="Artboard">
        <path id="Rectangle" d="M249.292,0.168L465.506,125L465.505,125.283L466,125L466,375L465.506,375.282L465.506,375.373L249.292,500.205L249.291,500.373L249.145,500.289L249,500.373L248.999,500.205L32.785,375.373L33,327C33,327 33,173.373 33,173.373C33,173.373 32.785,125 32.785,125L248.999,0.168L249,0L249.145,0.084L249.291,0L249.292,0.168ZM75,149.124L75,351.249L249.145,451.792L424,350.839L424,149.534L249.145,48.581L75,149.124ZM249.5,250L379,175.236L379.001,223.606L249.5,298.373C249.5,298.373 185,261.132 185,261.132L185.002,212.759L249.5,250Z" style="fill:rgb(0,150,136);fill-rule:nonzero;"/>
    </g>
</svg>
