<?xml version="1.0" encoding="UTF-8"?>
<!DOCTYPE svg PUBLIC "-//W3C//DTD SVG 1.1//EN" "http://www.w3.org/Graphics/SVG/1.1/DTD/svg11.dtd">
<svg version="1.1" xmlns="http://www.w3.org/2000/svg" xmlns:xlink="http://www.w3.org/1999/xlink" x="0" y="0" width="500" height="500" viewBox="0, 0, 500, 500">
  <g id="Background">
    <rect x="0" y="0" width="500" height="500" fill="#009688"/>
  </g>
  <g id="Artboard">
    <path d="M249.9,-0.018 L466.113,124.813 L466.112,125.096 L466.608,124.813 L466.608,374.814 L466.113,375.095 L466.113,375.186 L249.9,500.018 L249.898,500.186 L249.753,500.103 L249.607,500.186 L249.607,500.018 L33.393,375.186 L33.608,326.814 C33.608,326.814 33.608,173.186 33.608,173.186 C33.608,173.186 33.393,124.813 33.393,124.813 L249.607,-0.018 L249.607,-0.186 L249.753,-0.102 L249.898,-0.186 L249.9,-0.018 z M75.607,148.938 L75.607,351.062 L249.753,451.605 L424.608,350.652 L424.608,149.348 L249.753,48.395 L75.607,148.938 z M250.107,249.814 L379.608,175.049 L379.608,223.419 L250.107,298.186 C250.107,298.186 185.607,260.945 185.607,260.945 L185.609,212.572 L250.107,249.814 z" fill="#FFFFFF" id="Rectangle"/>
  </g>
</svg>
